<svg width="180" height="180" viewBox="0 0 180 180" fill="none" xmlns="http://www.w3.org/2000/svg">
<path fill-rule="evenodd" clip-rule="evenodd" d="M79.7773 8.67931C85.9654 5.10665 93.5893 5.10665 99.7773 8.67931L155.555 40.8824C161.743 44.4551 165.555 51.0575 165.555 58.2027V122.609C165.555 129.754 161.743 136.357 155.555 139.929L99.7773 172.132C93.5894 175.705 85.9653 175.705 79.7773 172.132L24 139.929C17.8121 136.357 14.0001 129.754 14 122.609V58.2027C14 51.0575 17.8121 44.4551 24 40.8824L79.7773 8.67931ZM89.2773 30.9059C56.6925 30.9059 30.2773 57.3211 30.2773 89.9059C30.2775 122.491 56.6926 148.906 89.2773 148.906C121.862 148.906 148.277 122.491 148.277 89.9059C148.277 57.3211 121.862 30.9059 89.2773 30.9059Z" fill="url(#paint0_linear_22_22)"/>
<path d="M131.091 87.6668C103.154 81.3579 98.8265 77.0303 92.5178 49.0921C92.2287 47.8151 91.0921 46.9059 89.7787 46.9059C88.4654 46.9059 87.3288 47.8151 87.0397 49.0921C80.7282 77.0303 76.4036 81.3579 48.4663 87.6668C47.1866 87.9586 46.2773 89.0924 46.2773 90.4059C46.2773 91.7193 47.1866 92.8531 48.4663 93.1449C76.4036 99.4567 80.7282 103.784 87.0397 131.72C87.3288 132.997 88.4654 133.906 89.7787 133.906C91.0921 133.906 92.2287 132.997 92.5178 131.72C98.8293 103.784 103.154 99.4567 131.091 93.1449C132.371 92.8531 133.277 91.7193 133.277 90.4059C133.277 89.0924 132.368 87.9586 131.091 87.6668Z" fill="url(#paint1_linear_22_22)"/>
<defs>
<linearGradient id="paint0_linear_22_22" x1="41.2773" y1="16.9057" x2="147.277" y2="156.906" gradientUnits="userSpaceOnUse">
<stop stop-color="#002A5A"/>
<stop offset="0.995225" stop-color="#0280B2"/>
</linearGradient>
<linearGradient id="paint1_linear_22_22" x1="61.9359" y1="52.5264" x2="114.711" y2="130.166" gradientUnits="userSpaceOnUse">
<stop stop-color="#002A5A"/>
<stop offset="0.995225" stop-color="#0280B2"/>
</linearGradient>
</defs>
</svg>
