<svg width="959" height="200" viewBox="0 0 959 200" fill="none" xmlns="http://www.w3.org/2000/svg">
<path d="M223.988 146V55.0909H256.392C263.435 55.0909 269.279 56.3042 273.925 58.7308C278.601 61.1574 282.093 64.5162 284.401 68.8072C286.71 73.0685 287.864 77.9957 287.864 83.5888C287.864 89.1522 286.695 94.0498 284.357 98.2816C282.049 102.484 278.557 105.754 273.881 108.092C269.235 110.429 263.39 111.598 256.347 111.598H231.8V99.7908H255.104C259.543 99.7908 263.154 99.1546 265.935 97.8821C268.747 96.6096 270.803 94.7601 272.105 92.3334C273.408 89.9068 274.059 86.9919 274.059 83.5888C274.059 80.156 273.393 77.1819 272.061 74.6665C270.759 72.1512 268.702 70.2276 265.891 68.896C263.109 67.5347 259.455 66.854 254.927 66.854H237.704V146H223.988ZM268.865 104.984L291.326 146H275.701L253.684 104.984H268.865ZM332.02 147.376C325.302 147.376 319.517 145.941 314.664 143.07C309.84 140.17 306.111 136.101 303.478 130.863C300.873 125.596 299.571 119.426 299.571 112.353C299.571 105.369 300.873 99.2138 303.478 93.8871C306.111 88.5604 309.781 84.4026 314.486 81.4137C319.221 78.4248 324.755 76.9304 331.088 76.9304C334.935 76.9304 338.663 77.5666 342.274 78.8391C345.884 80.1116 349.124 82.1091 351.995 84.8317C354.865 87.5542 357.129 91.0906 358.786 95.4407C360.444 99.7612 361.272 105.014 361.272 111.199V115.904H307.073V105.961H348.266C348.266 102.469 347.556 99.3765 346.136 96.6836C344.715 93.9611 342.718 91.8156 340.143 90.2472C337.598 88.6787 334.609 87.8945 331.176 87.8945C327.448 87.8945 324.193 88.8119 321.411 90.6467C318.659 92.4518 316.528 94.8192 315.019 97.7489C313.539 100.649 312.799 103.801 312.799 107.204V114.972C312.799 119.529 313.598 123.406 315.196 126.602C316.824 129.798 319.088 132.239 321.988 133.926C324.888 135.583 328.276 136.412 332.153 136.412C334.668 136.412 336.962 136.057 339.033 135.347C341.105 134.607 342.895 133.512 344.404 132.062C345.914 130.612 347.068 128.821 347.867 126.691L360.429 128.955C359.423 132.654 357.618 135.894 355.013 138.676C352.439 141.428 349.198 143.573 345.292 145.112C341.416 146.621 336.991 147.376 332.02 147.376ZM390.658 146L370.594 77.8182H384.31L397.671 127.889H398.337L411.743 77.8182H425.459L438.776 127.667H439.442L452.714 77.8182H466.43L446.411 146H432.872L419.023 96.7724H418.002L404.152 146H390.658ZM498.868 147.509C494.547 147.509 490.641 146.71 487.149 145.112C483.657 143.485 480.89 141.132 478.848 138.054C476.836 134.977 475.83 131.204 475.83 126.735C475.83 122.888 476.57 119.722 478.049 117.236C479.529 114.75 481.526 112.782 484.042 111.332C486.557 109.882 489.368 108.787 492.476 108.047C495.583 107.307 498.749 106.745 501.975 106.36C506.059 105.887 509.373 105.502 511.918 105.206C514.463 104.881 516.313 104.363 517.467 103.653C518.621 102.942 519.198 101.788 519.198 100.19V99.8796C519.198 96.003 518.103 92.9993 515.913 90.8686C513.753 88.7379 510.527 87.6726 506.236 87.6726C501.768 87.6726 498.246 88.6639 495.672 90.6467C493.127 92.5998 491.366 94.7749 490.389 97.1719L477.916 94.331C479.396 90.188 481.556 86.844 484.397 84.299C487.267 81.7244 490.567 79.8601 494.296 78.706C498.024 77.5223 501.945 76.9304 506.059 76.9304C508.781 76.9304 511.667 77.2559 514.715 77.907C517.792 78.5284 520.663 79.6825 523.326 81.3693C526.019 83.0561 528.224 85.4679 529.94 88.6048C531.657 91.712 532.515 95.7514 532.515 100.723V146H519.553V136.678H519.02C518.162 138.395 516.875 140.081 515.159 141.739C513.442 143.396 511.238 144.772 508.545 145.867C505.852 146.962 502.626 147.509 498.868 147.509ZM501.753 136.856C505.423 136.856 508.559 136.131 511.164 134.681C513.797 133.231 515.795 131.337 517.156 128.999C518.547 126.632 519.242 124.101 519.242 121.408V112.619C518.769 113.093 517.852 113.537 516.49 113.951C515.159 114.336 513.635 114.676 511.918 114.972C510.202 115.238 508.53 115.49 506.902 115.727C505.275 115.934 503.913 116.111 502.818 116.259C500.244 116.585 497.891 117.132 495.76 117.902C493.659 118.671 491.973 119.781 490.7 121.231C489.457 122.651 488.836 124.545 488.836 126.913C488.836 130.197 490.049 132.683 492.476 134.37C494.902 136.027 497.995 136.856 501.753 136.856ZM550.193 146V77.8182H563.021V88.6491H563.731C564.974 84.9796 567.164 82.0943 570.301 79.9933C573.467 77.8626 577.048 76.7972 581.043 76.7972C581.872 76.7972 582.848 76.8268 583.973 76.886C585.127 76.9452 586.03 77.0192 586.681 77.108V89.8033C586.148 89.6553 585.201 89.4925 583.84 89.315C582.478 89.1078 581.117 89.0043 579.756 89.0043C576.619 89.0043 573.823 89.6701 571.366 91.0018C568.94 92.3039 567.016 94.1238 565.596 96.4616C564.175 98.7699 563.465 101.404 563.465 104.363V146H550.193ZM621.249 147.332C615.744 147.332 610.832 145.926 606.512 143.115C602.221 140.274 598.847 136.234 596.391 130.996C593.964 125.729 592.751 119.411 592.751 112.042C592.751 104.674 593.979 98.3704 596.435 93.1325C598.921 87.8945 602.324 83.8847 606.645 81.103C610.965 78.3213 615.863 76.9304 621.338 76.9304C625.569 76.9304 628.972 77.6406 631.547 79.0611C634.151 80.4519 636.164 82.0795 637.584 83.9439C639.034 85.8082 640.159 87.4506 640.958 88.8711H641.757V55.0909H655.029V146H642.067V135.391H640.958C640.159 136.841 639.004 138.498 637.495 140.363C636.016 142.227 633.974 143.855 631.369 145.245C628.765 146.636 625.392 147.332 621.249 147.332ZM624.178 136.012C627.996 136.012 631.222 135.006 633.855 132.994C636.519 130.952 638.531 128.126 639.892 124.516C641.283 120.905 641.979 116.703 641.979 111.909C641.979 107.174 641.298 103.031 639.937 99.4801C638.575 95.929 636.578 93.162 633.944 91.1793C631.31 89.1966 628.055 88.2053 624.178 88.2053C620.183 88.2053 616.854 89.241 614.191 91.3125C611.528 93.384 609.515 96.2101 608.154 99.7908C606.822 103.372 606.156 107.411 606.156 111.909C606.156 116.466 606.837 120.565 608.198 124.205C609.56 127.845 611.572 130.73 614.235 132.861C616.928 134.962 620.243 136.012 624.178 136.012ZM675.037 146V55.0909H708.329C714.781 55.0909 720.122 56.1562 724.354 58.2869C728.586 60.388 731.752 63.2437 733.853 66.854C735.954 70.4348 737.005 74.4742 737.005 78.9723C737.005 82.7602 736.309 85.9562 734.918 88.5604C733.528 91.1349 731.663 93.2064 729.325 94.7749C727.017 96.3137 724.472 97.4382 721.69 98.1484V99.0362C724.709 99.1842 727.653 100.161 730.524 101.966C733.424 103.741 735.821 106.272 737.715 109.556C739.609 112.841 740.556 116.836 740.556 121.542C740.556 126.188 739.461 130.36 737.271 134.059C735.111 137.729 731.767 140.644 727.239 142.804C722.711 144.935 716.926 146 709.883 146H675.037ZM688.754 134.237H708.551C715.121 134.237 719.826 132.964 722.667 130.419C725.508 127.874 726.928 124.693 726.928 120.876C726.928 118.005 726.203 115.371 724.753 112.974C723.303 110.577 721.232 108.669 718.539 107.248C715.875 105.828 712.709 105.118 709.04 105.118H688.754V134.237ZM688.754 94.4197H707.131C710.208 94.4197 712.975 93.8279 715.432 92.6442C717.917 91.4605 719.885 89.8033 721.335 87.6726C722.815 85.5123 723.555 82.9673 723.555 80.0376C723.555 76.2794 722.238 73.1277 719.604 70.5827C716.97 68.0378 712.931 66.7653 707.486 66.7653H688.754V94.4197ZM775.601 147.509C771.281 147.509 767.374 146.71 763.882 145.112C760.39 143.485 757.623 141.132 755.582 138.054C753.569 134.977 752.563 131.204 752.563 126.735C752.563 122.888 753.303 119.722 754.783 117.236C756.262 114.75 758.26 112.782 760.775 111.332C763.291 109.882 766.102 108.787 769.209 108.047C772.316 107.307 775.483 106.745 778.708 106.36C782.792 105.887 786.107 105.502 788.652 105.206C791.197 104.881 793.046 104.363 794.2 103.653C795.354 102.942 795.931 101.788 795.931 100.19V99.8796C795.931 96.003 794.836 92.9993 792.647 90.8686C790.486 88.7379 787.261 87.6726 782.97 87.6726C778.501 87.6726 774.98 88.6639 772.405 90.6467C769.86 92.5998 768.099 94.7749 767.123 97.1719L754.649 94.331C756.129 90.188 758.289 86.844 761.13 84.299C764.001 81.7244 767.3 79.8601 771.029 78.706C774.758 77.5223 778.679 76.9304 782.792 76.9304C785.515 76.9304 788.4 77.2559 791.448 77.907C794.526 78.5284 797.396 79.6825 800.06 81.3693C802.753 83.0561 804.957 85.4679 806.674 88.6048C808.39 91.712 809.248 95.7514 809.248 100.723V146H796.286V136.678H795.754C794.896 138.395 793.608 140.081 791.892 141.739C790.176 143.396 787.971 144.772 785.278 145.867C782.585 146.962 779.359 147.509 775.601 147.509ZM778.486 136.856C782.156 136.856 785.293 136.131 787.897 134.681C790.531 133.231 792.528 131.337 793.889 128.999C795.28 126.632 795.976 124.101 795.976 121.408V112.619C795.502 113.093 794.585 113.537 793.224 113.951C791.892 114.336 790.368 114.676 788.652 114.972C786.935 115.238 785.263 115.49 783.636 115.727C782.008 115.934 780.647 116.111 779.552 116.259C776.977 116.585 774.625 117.132 772.494 117.902C770.393 118.671 768.706 119.781 767.434 121.231C766.191 122.651 765.569 124.545 765.569 126.913C765.569 130.197 766.782 132.683 769.209 134.37C771.636 136.027 774.728 136.856 778.486 136.856ZM878.018 94.4641L865.989 96.5948C865.486 95.056 864.687 93.5911 863.592 92.2003C862.526 90.8094 861.076 89.6701 859.241 88.7823C857.407 87.8945 855.113 87.4506 852.361 87.4506C848.603 87.4506 845.466 88.294 842.951 89.9808C840.435 91.638 839.178 93.7835 839.178 96.4173C839.178 98.6959 840.021 100.531 841.708 101.922C843.395 103.312 846.117 104.452 849.875 105.339L860.706 107.825C866.98 109.275 871.656 111.51 874.733 114.528C877.811 117.547 879.35 121.468 879.35 126.291C879.35 130.375 878.166 134.015 875.799 137.211C873.461 140.377 870.191 142.863 865.989 144.668C861.816 146.473 856.978 147.376 851.473 147.376C843.838 147.376 837.609 145.748 832.786 142.493C827.962 139.208 825.003 134.548 823.908 128.511L836.736 126.558C837.535 129.902 839.178 132.432 841.663 134.148C844.149 135.835 847.39 136.678 851.385 136.678C855.735 136.678 859.212 135.776 861.816 133.971C864.42 132.136 865.722 129.902 865.722 127.268C865.722 125.137 864.923 123.347 863.325 121.897C861.757 120.447 859.345 119.352 856.09 118.612L844.549 116.082C838.186 114.632 833.481 112.323 830.433 109.157C827.414 105.991 825.905 101.981 825.905 97.1275C825.905 93.1029 827.03 89.5813 829.279 86.5629C831.528 83.5444 834.635 81.1918 838.6 79.505C842.566 77.7886 847.108 76.9304 852.228 76.9304C859.597 76.9304 865.397 78.5284 869.629 81.7244C873.86 84.8909 876.657 89.1374 878.018 94.4641ZM923.328 147.376C916.611 147.376 910.825 145.941 905.972 143.07C901.149 140.17 897.42 136.101 894.786 130.863C892.182 125.596 890.88 119.426 890.88 112.353C890.88 105.369 892.182 99.2138 894.786 93.8871C897.42 88.5604 901.089 84.4026 905.795 81.4137C910.53 78.4248 916.063 76.9304 922.396 76.9304C926.243 76.9304 929.972 77.5666 933.582 78.8391C937.193 80.1116 940.433 82.1091 943.304 84.8317C946.174 87.5542 948.438 91.0906 950.095 95.4407C951.752 99.7612 952.581 105.014 952.581 111.199V115.904H898.382V105.961H939.575C939.575 102.469 938.865 99.3765 937.444 96.6836C936.024 93.9611 934.026 91.8156 931.452 90.2472C928.907 88.6787 925.918 87.8945 922.485 87.8945C918.756 87.8945 915.501 88.8119 912.719 90.6467C909.967 92.4518 907.837 94.8192 906.327 97.7489C904.848 100.649 904.108 103.801 904.108 107.204V114.972C904.108 119.529 904.907 123.406 906.505 126.602C908.132 129.798 910.396 132.239 913.296 133.926C916.197 135.583 919.585 136.412 923.462 136.412C925.977 136.412 928.27 136.057 930.342 135.347C932.413 134.607 934.204 133.512 935.713 132.062C937.222 130.612 938.376 128.821 939.175 126.691L951.737 128.955C950.731 132.654 948.926 135.894 946.322 138.676C943.747 141.428 940.507 143.573 936.601 145.112C932.724 146.621 928.3 147.376 923.328 147.376Z" fill="white"/>
<path d="M89.7773 18.6793C95.9654 15.1066 103.589 15.1066 109.777 18.6793L165.555 50.8824C171.743 54.4551 175.555 61.0575 175.555 68.2027V132.609C175.555 139.754 171.743 146.357 165.555 149.929L109.777 182.132C103.589 185.705 95.9653 185.705 89.7773 182.132L34 149.929C27.8121 146.357 24.0001 139.754 24 132.609V68.2027C24 61.0575 27.8121 54.4551 34 50.8824L89.7773 18.6793ZM99.2773 40.9059C66.6925 40.9059 40.2773 67.3211 40.2773 99.9059C40.2775 132.491 66.6926 158.906 99.2773 158.906C131.862 158.906 158.277 132.491 158.277 99.9059C158.277 67.3211 131.862 40.9059 99.2773 40.9059Z" fill="url(#paint0_linear_2_79)"/>
<path d="M141.091 97.6667C113.154 91.3578 108.826 87.0303 102.518 59.0921C102.229 57.8151 101.092 56.9058 99.7787 56.9058C98.4654 56.9058 97.3288 57.8151 97.0397 59.0921C90.7282 87.0303 86.4036 91.3578 58.4663 97.6667C57.1866 97.9586 56.2773 99.0924 56.2773 100.406C56.2773 101.719 57.1866 102.853 58.4663 103.145C86.4036 109.457 90.7282 113.784 97.0397 141.72C97.3288 142.997 98.4654 143.906 99.7787 143.906C101.092 143.906 102.229 142.997 102.518 141.72C108.829 113.784 113.154 109.457 141.091 103.145C142.371 102.853 143.277 101.719 143.277 100.406C143.277 99.0924 142.368 97.9586 141.091 97.6667Z" fill="url(#paint1_linear_2_79)"/>
<defs>
<linearGradient id="paint0_linear_2_79" x1="51.2773" y1="26.9056" x2="157.277" y2="166.906" gradientUnits="userSpaceOnUse">
<stop stop-color="#002A5A"/>
<stop offset="0.995225" stop-color="#0280B2"/>
</linearGradient>
<linearGradient id="paint1_linear_2_79" x1="71.9359" y1="62.5263" x2="124.711" y2="140.166" gradientUnits="userSpaceOnUse">
<stop stop-color="#002A5A"/>
<stop offset="0.995225" stop-color="#0280B2"/>
</linearGradient>
</defs>
</svg>
