<svg width="935" height="169" viewBox="0 0 935 169" fill="none" xmlns="http://www.w3.org/2000/svg">
<path d="M199.988 130V39.0911H232.392C239.435 39.0911 245.279 40.3044 249.925 42.731C254.601 45.1576 258.093 48.5164 260.401 52.8074C262.71 57.0687 263.864 61.9959 263.864 67.589C263.864 73.1524 262.695 78.05 260.357 82.2818C258.049 86.484 254.557 89.754 249.881 92.0918C245.235 94.4296 239.39 95.5986 232.347 95.5986H207.8V83.791H231.104C235.543 83.791 239.154 83.1548 241.935 81.8823C244.747 80.6098 246.803 78.7603 248.105 76.3336C249.408 73.907 250.059 70.9921 250.059 67.589C250.059 64.1562 249.393 61.1821 248.061 58.6667C246.759 56.1514 244.702 54.2278 241.891 52.8961C239.109 51.5349 235.455 50.8542 230.927 50.8542H213.704V130H199.988ZM244.865 88.9846L267.326 130H251.701L229.684 88.9846H244.865ZM308.02 131.376C301.302 131.376 295.517 129.941 290.664 127.071C285.84 124.17 282.111 120.101 279.478 114.863C276.873 109.596 275.571 103.426 275.571 96.3532C275.571 89.3693 276.873 83.214 279.478 77.8873C282.111 72.5606 285.781 68.4028 290.486 65.4139C295.221 62.425 300.755 60.9306 307.088 60.9306C310.935 60.9306 314.663 61.5668 318.274 62.8393C321.884 64.1118 325.124 66.1093 327.995 68.8319C330.865 71.5544 333.129 75.0907 334.786 79.4409C336.444 83.7614 337.272 89.0142 337.272 95.1991V99.9043H283.073V89.9611H324.266C324.266 86.4692 323.556 83.3767 322.136 80.6838C320.715 77.9613 318.718 75.8158 316.143 74.2474C313.598 72.6789 310.609 71.8947 307.176 71.8947C303.448 71.8947 300.193 72.8121 297.411 74.6469C294.659 76.452 292.528 78.8194 291.019 81.7491C289.539 84.6492 288.799 87.8009 288.799 91.204V98.9721C288.799 103.529 289.598 107.406 291.196 110.602C292.824 113.798 295.088 116.24 297.988 117.926C300.888 119.584 304.276 120.412 308.153 120.412C310.668 120.412 312.962 120.057 315.033 119.347C317.105 118.607 318.895 117.512 320.404 116.062C321.914 114.612 323.068 112.822 323.867 110.691L336.429 112.955C335.423 116.654 333.618 119.894 331.013 122.676C328.439 125.428 325.198 127.574 321.292 129.112C317.416 130.622 312.991 131.376 308.02 131.376ZM366.658 130L346.594 61.8184H360.31L373.671 111.889H374.337L387.743 61.8184H401.459L414.776 111.667H415.442L428.714 61.8184H442.43L422.411 130H408.872L395.023 80.7726H394.002L380.152 130H366.658ZM474.868 131.509C470.547 131.509 466.641 130.71 463.149 129.112C459.657 127.485 456.89 125.132 454.848 122.055C452.836 118.977 451.83 115.204 451.83 110.735C451.83 106.888 452.57 103.722 454.049 101.236C455.529 98.7502 457.526 96.7823 460.042 95.3322C462.557 93.8822 465.368 92.7872 468.476 92.0474C471.583 91.3076 474.749 90.7453 477.975 90.3606C482.059 89.8871 485.373 89.5024 487.918 89.2065C490.463 88.881 492.313 88.3631 493.467 87.6529C494.621 86.9427 495.198 85.7885 495.198 84.1905V83.8798C495.198 80.0032 494.103 76.9995 491.913 74.8688C489.753 72.7381 486.527 71.6728 482.236 71.6728C477.768 71.6728 474.246 72.6641 471.672 74.6469C469.127 76.6 467.366 78.7751 466.389 81.1721L453.916 78.3312C455.396 74.1882 457.556 70.8442 460.397 68.2992C463.267 65.7246 466.567 63.8603 470.296 62.7062C474.024 61.5224 477.945 60.9306 482.059 60.9306C484.781 60.9306 487.667 61.2561 490.715 61.9072C493.792 62.5286 496.663 63.6827 499.326 65.3695C502.019 67.0563 504.224 69.4681 505.94 72.605C507.657 75.7122 508.515 79.7516 508.515 84.7232V130H495.553V120.678H495.02C494.162 122.395 492.875 124.082 491.159 125.739C489.442 127.396 487.238 128.772 484.545 129.867C481.852 130.962 478.626 131.509 474.868 131.509ZM477.753 120.856C481.423 120.856 484.559 120.131 487.164 118.681C489.797 117.231 491.795 115.337 493.156 112.999C494.547 110.632 495.242 108.102 495.242 105.409V96.6195C494.769 97.093 493.852 97.5369 492.49 97.9512C491.159 98.3359 489.635 98.6762 487.918 98.9721C486.202 99.2385 484.53 99.49 482.902 99.7268C481.275 99.9339 479.913 100.111 478.818 100.259C476.244 100.585 473.891 101.132 471.76 101.902C469.659 102.671 467.973 103.781 466.7 105.231C465.457 106.651 464.836 108.545 464.836 110.913C464.836 114.198 466.049 116.683 468.476 118.37C470.902 120.027 473.995 120.856 477.753 120.856ZM526.193 130V61.8184H539.021V72.6493H539.731C540.974 68.9798 543.164 66.0945 546.301 63.9934C549.467 61.8628 553.048 60.7974 557.043 60.7974C557.872 60.7974 558.848 60.827 559.973 60.8862C561.127 60.9454 562.03 61.0194 562.681 61.1081V73.8035C562.148 73.6555 561.201 73.4927 559.84 73.3152C558.478 73.108 557.117 73.0045 555.756 73.0045C552.619 73.0045 549.823 73.6703 547.366 75.002C544.94 76.3041 543.016 78.124 541.596 80.4618C540.175 82.7701 539.465 85.4038 539.465 88.3631V130H526.193ZM597.249 131.332C591.744 131.332 586.832 129.926 582.512 127.115C578.221 124.274 574.847 120.235 572.391 114.997C569.964 109.729 568.751 103.411 568.751 96.0425C568.751 88.6738 569.979 82.3706 572.435 77.1327C574.921 71.8947 578.324 67.8849 582.645 65.1032C586.965 62.3215 591.863 60.9306 597.338 60.9306C601.569 60.9306 604.972 61.6408 607.547 63.0613C610.151 64.4521 612.164 66.0797 613.584 67.9441C615.034 69.8084 616.159 71.4508 616.958 72.8713H617.757V39.0911H631.029V130H618.067V119.391H616.958C616.159 120.841 615.004 122.498 613.495 124.363C612.016 126.227 609.974 127.855 607.369 129.246C604.765 130.636 601.392 131.332 597.249 131.332ZM600.178 120.013C603.996 120.013 607.222 119.006 609.855 116.994C612.519 114.952 614.531 112.126 615.892 108.516C617.283 104.905 617.979 100.703 617.979 95.9093C617.979 91.1744 617.298 87.0314 615.937 83.4803C614.575 79.9292 612.578 77.1622 609.944 75.1795C607.31 73.1968 604.055 72.2054 600.178 72.2054C596.183 72.2054 592.854 73.2412 590.191 75.3127C587.528 77.3842 585.515 80.2103 584.154 83.791C582.822 87.3718 582.156 91.4112 582.156 95.9093C582.156 100.467 582.837 104.565 584.198 108.205C585.56 111.845 587.572 114.73 590.235 116.861C592.928 118.962 596.243 120.013 600.178 120.013ZM651.037 130V39.0911H684.329C690.781 39.0911 696.122 40.1564 700.354 42.2871C704.586 44.3882 707.752 47.2439 709.853 50.8542C711.954 54.435 713.005 58.4744 713.005 62.9725C713.005 66.7604 712.309 69.9564 710.918 72.5606C709.528 75.1351 707.663 77.2066 705.325 78.7751C703.017 80.3139 700.472 81.4384 697.69 82.1486V83.0364C700.709 83.1844 703.653 84.1609 706.524 85.9661C709.424 87.7417 711.821 90.2719 713.715 93.5567C715.609 96.8415 716.556 100.836 716.556 105.542C716.556 110.188 715.461 114.36 713.271 118.059C711.111 121.729 707.767 124.644 703.239 126.804C698.711 128.935 692.926 130 685.883 130H651.037ZM664.754 118.237H684.551C691.121 118.237 695.826 116.965 698.667 114.42C701.508 111.875 702.928 108.693 702.928 104.876C702.928 102.005 702.203 99.3716 700.753 96.9746C699.303 94.5776 697.232 92.6689 694.539 91.2484C691.875 89.828 688.709 89.1177 685.04 89.1177H664.754V118.237ZM664.754 78.4199H683.131C686.208 78.4199 688.975 77.8281 691.432 76.6444C693.917 75.4607 695.885 73.8035 697.335 71.6728C698.815 69.5125 699.555 66.9675 699.555 64.0378C699.555 60.2795 698.238 57.1279 695.604 54.5829C692.97 52.038 688.931 50.7655 683.486 50.7655H664.754V78.4199ZM751.601 131.509C747.281 131.509 743.374 130.71 739.882 129.112C736.39 127.485 733.623 125.132 731.582 122.055C729.569 118.977 728.563 115.204 728.563 110.735C728.563 106.888 729.303 103.722 730.783 101.236C732.262 98.7502 734.26 96.7823 736.775 95.3322C739.291 93.8822 742.102 92.7872 745.209 92.0474C748.316 91.3076 751.483 90.7453 754.708 90.3606C758.792 89.8871 762.107 89.5024 764.652 89.2065C767.197 88.881 769.046 88.3631 770.2 87.6529C771.354 86.9427 771.931 85.7885 771.931 84.1905V83.8798C771.931 80.0032 770.836 76.9995 768.647 74.8688C766.486 72.7381 763.261 71.6728 758.97 71.6728C754.501 71.6728 750.98 72.6641 748.405 74.6469C745.86 76.6 744.099 78.7751 743.123 81.1721L730.649 78.3312C732.129 74.1882 734.289 70.8442 737.13 68.2992C740.001 65.7246 743.3 63.8603 747.029 62.7062C750.758 61.5224 754.679 60.9306 758.792 60.9306C761.515 60.9306 764.4 61.2561 767.448 61.9072C770.526 62.5286 773.396 63.6827 776.06 65.3695C778.753 67.0563 780.957 69.4681 782.674 72.605C784.39 75.7122 785.248 79.7516 785.248 84.7232V130H772.286V120.678H771.754C770.896 122.395 769.608 124.082 767.892 125.739C766.176 127.396 763.971 128.772 761.278 129.867C758.585 130.962 755.359 131.509 751.601 131.509ZM754.486 120.856C758.156 120.856 761.293 120.131 763.897 118.681C766.531 117.231 768.528 115.337 769.889 112.999C771.28 110.632 771.976 108.102 771.976 105.409V96.6195C771.502 97.093 770.585 97.5369 769.224 97.9512C767.892 98.3359 766.368 98.6762 764.652 98.9721C762.935 99.2385 761.263 99.49 759.636 99.7268C758.008 99.9339 756.647 100.111 755.552 100.259C752.977 100.585 750.625 101.132 748.494 101.902C746.393 102.671 744.706 103.781 743.434 105.231C742.191 106.651 741.569 108.545 741.569 110.913C741.569 114.198 742.782 116.683 745.209 118.37C747.636 120.027 750.728 120.856 754.486 120.856ZM854.018 78.4643L841.989 80.595C841.486 79.0562 840.687 77.5913 839.592 76.2005C838.526 74.8096 837.076 73.6703 835.241 72.7825C833.407 71.8947 831.113 71.4508 828.361 71.4508C824.603 71.4508 821.466 72.2942 818.951 73.981C816.435 75.6382 815.178 77.7837 815.178 80.4175C815.178 82.6961 816.021 84.5309 817.708 85.9217C819.395 87.3126 822.117 88.4519 825.875 89.3397L836.706 91.8255C842.98 93.2755 847.656 95.5098 850.733 98.5283C853.811 101.547 855.35 105.468 855.35 110.291C855.35 114.375 854.166 118.015 851.799 121.211C849.461 124.378 846.191 126.863 841.989 128.669C837.816 130.474 832.978 131.376 827.473 131.376C819.838 131.376 813.609 129.749 808.786 126.493C803.962 123.209 801.003 118.548 799.908 112.511L812.736 110.558C813.535 113.902 815.178 116.432 817.663 118.148C820.149 119.835 823.39 120.678 827.385 120.678C831.735 120.678 835.212 119.776 837.816 117.971C840.42 116.136 841.722 113.902 841.722 111.268C841.722 109.137 840.923 107.347 839.325 105.897C837.757 104.447 835.345 103.352 832.09 102.612L820.549 100.082C814.186 98.6318 809.481 96.3236 806.433 93.1572C803.414 89.9907 801.905 85.9809 801.905 81.1277C801.905 77.1031 803.03 73.5815 805.279 70.563C807.528 67.5446 810.635 65.192 814.6 63.5052C818.566 61.7888 823.108 60.9306 828.228 60.9306C835.597 60.9306 841.397 62.5286 845.629 65.7246C849.86 68.8911 852.657 73.1376 854.018 78.4643ZM899.328 131.376C892.611 131.376 886.825 129.941 881.972 127.071C877.149 124.17 873.42 120.101 870.786 114.863C868.182 109.596 866.88 103.426 866.88 96.3532C866.88 89.3693 868.182 83.214 870.786 77.8873C873.42 72.5606 877.089 68.4028 881.795 65.4139C886.53 62.425 892.063 60.9306 898.396 60.9306C902.243 60.9306 905.972 61.5668 909.582 62.8393C913.193 64.1118 916.433 66.1093 919.304 68.8319C922.174 71.5544 924.438 75.0907 926.095 79.4409C927.752 83.7614 928.581 89.0142 928.581 95.1991V99.9043H874.382V89.9611H915.575C915.575 86.4692 914.865 83.3767 913.444 80.6838C912.024 77.9613 910.026 75.8158 907.452 74.2474C904.907 72.6789 901.918 71.8947 898.485 71.8947C894.756 71.8947 891.501 72.8121 888.719 74.6469C885.967 76.452 883.837 78.8194 882.327 81.7491C880.848 84.6492 880.108 87.8009 880.108 91.204V98.9721C880.108 103.529 880.907 107.406 882.505 110.602C884.132 113.798 886.396 116.24 889.296 117.926C892.197 119.584 895.585 120.412 899.462 120.412C901.977 120.412 904.27 120.057 906.342 119.347C908.413 118.607 910.204 117.512 911.713 116.062C913.222 114.612 914.376 112.822 915.175 110.691L927.737 112.955C926.731 116.654 924.926 119.894 922.322 122.676C919.747 125.428 916.507 127.574 912.601 129.112C908.724 130.622 904.3 131.376 899.328 131.376Z" fill="white"/>
<path fill-rule="evenodd" clip-rule="evenodd" d="M65.7773 2.67949C71.9654 -0.893164 79.5893 -0.893164 85.7773 2.67949L141.555 34.8826C147.743 38.4553 151.555 45.0577 151.555 52.2029V116.609C151.555 123.754 147.743 130.357 141.555 133.929L85.7773 166.133C79.5894 169.705 71.9653 169.705 65.7773 166.133L10 133.929C3.81209 130.357 0.00012221 123.754 0 116.609V52.2029C0 45.0577 3.8121 38.4553 10 34.8826L65.7773 2.67949ZM75.2773 24.9061C42.6925 24.9061 16.2773 51.3213 16.2773 83.9061C16.2775 116.491 42.6926 142.906 75.2773 142.906C107.862 142.906 134.277 116.491 134.277 83.9061C134.277 51.3213 107.862 24.9061 75.2773 24.9061Z" fill="white"/>
<path d="M117.091 81.6669C89.1539 75.358 84.8265 71.0305 78.5178 43.0923C78.2287 41.8153 77.0921 40.906 75.7787 40.906C74.4654 40.906 73.3288 41.8153 73.0397 43.0923C66.7282 71.0305 62.4036 75.358 34.4663 81.6669C33.1866 81.9588 32.2773 83.0926 32.2773 84.406C32.2773 85.7195 33.1866 86.8533 34.4663 87.1451C62.4036 93.4568 66.7282 97.7844 73.0397 125.72C73.3288 126.997 74.4654 127.906 75.7787 127.906C77.0921 127.906 78.2287 126.997 78.5178 125.72C84.8293 97.7844 89.1539 93.4568 117.091 87.1451C118.371 86.8533 119.277 85.7195 119.277 84.406C119.277 83.0926 118.368 81.9588 117.091 81.6669Z" fill="white"/>
</svg>
