<svg width="126" height="31" viewBox="0 0 126 31" fill="none" xmlns="http://www.w3.org/2000/svg">
<g clip-path="url(#clip0_30_24)">
<path d="M24.16 26.9043C24.2 26.9043 24.217 26.9543 24.186 26.9793C21.5632 28.9948 18.3468 30.0849 15.039 30.0793C11.599 30.0793 8.42701 28.9233 5.89301 26.9793C5.86101 26.9553 5.87901 26.9043 5.91901 26.9043H24.16ZM28.083 22.5313C27.5597 23.4414 26.9423 24.2941 26.241 25.0753C26.2144 25.1047 26.1766 25.1214 26.137 25.1213H3.94201C3.90241 25.1213 3.86461 25.1047 3.83801 25.0753C3.13671 24.2941 2.51931 23.4414 1.99601 22.5313C1.98111 22.5042 1.99101 22.4702 2.01811 22.4552C2.02641 22.4507 2.03561 22.4483 2.04501 22.4483H28.035C28.078 22.4483 28.105 22.4943 28.083 22.5313ZM29.781 18.0313C29.6039 18.907 29.3488 19.765 29.019 20.5953C29.0025 20.6377 28.9615 20.6655 28.916 20.6653H1.16301C1.11711 20.6659 1.07571 20.638 1.05901 20.5953C0.729205 19.765 0.474105 18.907 0.297005 18.0313C0.290905 18.001 0.310605 17.9715 0.340905 17.9654C0.344605 17.9647 0.348305 17.9643 0.352005 17.9643H29.727C29.762 17.9643 29.788 17.9963 29.781 18.0313ZM14.938 0.000345637C23.29 -0.0556544 30.078 6.70035 30.078 15.0403C30.078 15.407 30.0653 15.7703 30.04 16.1303C30.0374 16.1593 30.0131 16.1814 29.984 16.1813H0.0940054C0.0650054 16.1809 0.0411054 16.1583 0.0390054 16.1293C0.0132054 15.7716 0.00010543 15.413 5.4299e-06 15.0543C-0.00699457 6.87035 6.75501 0.0553456 14.938 0.000345637Z" fill="#FF631F"/>
<path d="M39.079 5.93729H47.302C51.209 5.93729 53.086 7.75029 53.086 10.6273C53.086 12.5193 52.056 13.8933 50.619 14.5393C52.394 15.0563 53.831 16.4583 53.831 18.7613C53.831 22.0513 51.571 23.9183 47.302 23.9183H39.08L39.079 5.93729ZM46.377 8.91729H42.754V13.3733H46.378C48.355 13.3733 49.333 12.7773 49.333 11.1453C49.333 9.51329 48.358 8.91629 46.377 8.91629M46.944 16.1953H42.757V20.9373H46.944C48.975 20.9373 50.079 20.2903 50.079 18.5793C50.079 16.8693 48.972 16.1953 46.944 16.1953ZM63.612 23.8863V21.8803C62.681 23.3963 60.92 24.1413 58.926 24.1413C56.442 24.1413 54.502 22.8053 54.502 20.3893C54.502 18.1293 56.211 16.8433 58.719 16.4043L63.377 15.6083V15.3013C63.377 13.9143 62.341 13.2963 60.867 13.2963C59.314 13.2963 58.563 13.9913 58.461 15.0713H54.967C55.097 12.3483 57.271 10.8813 60.869 10.8813C64.828 10.8813 66.795 12.5003 66.795 15.8913V23.8853L63.612 23.8863ZM63.38 18.5923V18.0003L59.887 18.6173C58.49 18.8503 57.842 19.2593 57.842 20.2373C57.842 21.0843 58.592 21.6243 59.887 21.6243C61.569 21.6243 63.38 20.5443 63.38 18.5913M73.76 10.8813C76.837 10.8813 79.48 12.1913 79.53 14.9933H76.093C76.016 14.0433 75.171 13.2973 73.656 13.2973C72.424 13.2973 71.552 13.8103 71.552 14.5823C71.552 15.3543 72.142 15.5843 73.246 15.7903L76.144 16.3563C78.454 16.7923 79.76 17.9763 79.76 20.0303C79.76 22.5233 77.733 24.1423 73.99 24.1423C70.247 24.1423 68.04 22.4723 67.913 19.7743H71.502C71.602 20.8543 72.424 21.7273 74.118 21.7273C75.683 21.7273 76.424 21.1373 76.424 20.3913C76.424 19.6453 75.834 19.3383 74.73 19.1333L71.832 18.5933C69.526 18.1573 68.217 16.9503 68.217 14.8933C68.217 12.4263 70.448 10.8843 73.754 10.8843L73.76 10.8813ZM86.867 10.8813C90.964 10.8813 93.394 13.3243 93.394 17.4333V18.5393H83.718C83.795 20.1083 84.972 21.5723 86.841 21.5723C88.198 21.5723 89.324 20.9043 89.631 19.7743H93.213C92.652 22.6013 90.115 24.1423 86.838 24.1423C83.05 24.1423 80.207 21.7783 80.207 17.5133C80.207 13.5293 82.791 10.8843 86.861 10.8843L86.867 10.8813ZM89.886 16.1743C89.808 14.5313 88.528 13.3483 86.942 13.3483C85.201 13.3483 83.947 14.6573 83.742 16.1743H89.886ZM106.014 23.9183V20.1863H97.194V17.1793L105.321 5.93729H109.488V23.9173L106.014 23.9183ZM106.014 9.79829L100.716 17.2603H106.014V9.79829ZM119.681 20.1843H110.829V17.1773L118.983 5.93729H123.165V17.2593H125.358V20.1873H123.165V23.9173H119.681V20.1843ZM119.681 9.79729L114.364 17.2593H119.681V9.79729Z" fill="white"/>
</g>
<defs>
<clipPath id="clip0_30_24">
<rect width="125.358" height="30.0794" fill="white"/>
</clipPath>
</defs>
</svg>
