<svg width="152" height="169" viewBox="0 0 152 169" fill="none" xmlns="http://www.w3.org/2000/svg">
<path d="M65.7773 2.67949C71.9654 -0.893164 79.5893 -0.893164 85.7773 2.67949L141.555 34.8826C147.743 38.4553 151.555 45.0577 151.555 52.2029V116.609C151.555 123.754 147.743 130.357 141.555 133.929L85.7773 166.133C79.5894 169.705 71.9653 169.705 65.7773 166.133L10 133.929C3.81209 130.357 0.00012221 123.754 0 116.609V52.2029C0 45.0577 3.8121 38.4553 10 34.8826L65.7773 2.67949ZM75.2773 24.9061C42.6925 24.9061 16.2773 51.3213 16.2773 83.9061C16.2775 116.491 42.6926 142.906 75.2773 142.906C107.862 142.906 134.277 116.491 134.277 83.9061C134.277 51.3213 107.862 24.9061 75.2773 24.9061Z" fill="white"/>
<path d="M117.091 81.6669C89.1539 75.358 84.8265 71.0305 78.5178 43.0923C78.2287 41.8153 77.0921 40.906 75.7787 40.906C74.4654 40.906 73.3288 41.8153 73.0397 43.0923C66.7282 71.0305 62.4036 75.358 34.4663 81.6669C33.1866 81.9588 32.2773 83.0926 32.2773 84.406C32.2773 85.7195 33.1866 86.8533 34.4663 87.1451C62.4036 93.4568 66.7282 97.7844 73.0397 125.72C73.3288 126.997 74.4654 127.906 75.7787 127.906C77.0921 127.906 78.2287 126.997 78.5178 125.72C84.8293 97.7844 89.1539 93.4568 117.091 87.1451C118.371 86.8533 119.277 85.7195 119.277 84.406C119.277 83.0926 118.368 81.9588 117.091 81.6669Z" fill="white"/>
</svg>
