<svg width="200" height="200" viewBox="0 0 200 200" fill="none" xmlns="http://www.w3.org/2000/svg">
<path fill-rule="evenodd" clip-rule="evenodd" d="M89.7773 18.6793C95.9654 15.1066 103.589 15.1066 109.777 18.6793L165.555 50.8824C171.743 54.4551 175.555 61.0575 175.555 68.2027V132.609C175.555 139.754 171.743 146.357 165.555 149.929L109.777 182.132C103.589 185.705 95.9653 185.705 89.7773 182.132L34 149.929C27.8121 146.357 24.0001 139.754 24 132.609V68.2027C24 61.0575 27.8121 54.4551 34 50.8824L89.7773 18.6793ZM99.2773 40.9059C66.6925 40.9059 40.2773 67.3211 40.2773 99.9059C40.2775 132.491 66.6926 158.906 99.2773 158.906C131.862 158.906 158.277 132.491 158.277 99.9059C158.277 67.3211 131.862 40.9059 99.2773 40.9059Z" fill="url(#paint0_linear_2_35)"/>
<path d="M141.091 97.6667C113.154 91.3578 108.826 87.0303 102.518 59.0921C102.229 57.8151 101.092 56.9058 99.7787 56.9058C98.4654 56.9058 97.3288 57.8151 97.0397 59.0921C90.7282 87.0303 86.4036 91.3578 58.4663 97.6667C57.1866 97.9586 56.2773 99.0924 56.2773 100.406C56.2773 101.719 57.1866 102.853 58.4663 103.145C86.4036 109.457 90.7282 113.784 97.0397 141.72C97.3288 142.997 98.4654 143.906 99.7787 143.906C101.092 143.906 102.229 142.997 102.518 141.72C108.829 113.784 113.154 109.457 141.091 103.145C142.371 102.853 143.277 101.719 143.277 100.406C143.277 99.0924 142.368 97.9586 141.091 97.6667Z" fill="url(#paint1_linear_2_35)"/>
<defs>
<linearGradient id="paint0_linear_2_35" x1="51.2773" y1="26.9056" x2="157.277" y2="166.906" gradientUnits="userSpaceOnUse">
<stop stop-color="#002A5A"/>
<stop offset="0.995225" stop-color="#0280B2"/>
</linearGradient>
<linearGradient id="paint1_linear_2_35" x1="71.9359" y1="62.5263" x2="124.711" y2="140.166" gradientUnits="userSpaceOnUse">
<stop stop-color="#002A5A"/>
<stop offset="0.995225" stop-color="#0280B2"/>
</linearGradient>
</defs>
</svg>
